# xmcd CD database file
# Copyright (C) 1993-1998 Ti Kan
#
# Track frame offsets:
#  150
#  14680
#  33952
#  50482
#  67875
#  83580
#  105292
#  125522
#  139327
#  151932
#  165442
#  181235
#  195267
#  213445
#  228810
#  240940
#  256430
#  267632
#  284275
#  299020
#
# Disc length: 4233 seconds
#
# Revision: 1
# Processed by: cddbd v1.4b41PL1 Copyright (c) Steve Scherf et al.
# Submitted via: CDWizzard Release:4.35
#
DISCID=11108714
DTITLE=Various Artist - Dutch-made Country
DYEAR=1900
DGENRE=
TTITLE0=Manolito [Treasure]
TTITLE1=You've Got Gold [Country Session Band]
TTITLE2=Twilight Is Gone [Silver Dollar Band]
TTITLE3=Navajo [Jos Jongeling]
TTITLE4=Internal Combat [Fairweather Friends]
TTITLE5=Pancho And Lefty [Jos Jongeling]
TTITLE6=Running Out Of Time [Treasure]
TTITLE7=Why Have You Left The One You Left Me For [Bouk van Weeghel]
TTITLE8=Flea [Fairweather Friends]
TTITLE9=Pardon My French [Country Session Band]
TTITLE10=Sweet Liane [Treasure]
TTITLE11=Silly Things [Fairweather Friends]
TTITLE12=Angelina [Silver Dollar Band]
TTITLE13=Feel Feel [Linda and Gardner]
TTITLE14=What'll You Do About Me [Jos Jongeling]
TTITLE15=One Step Forward [Silver Dollar Band]
TTITLE16=Dreaming My Dreams [Country Session Band]
TTITLE17=One Hundred And One [Bouk van Weeghel]
TTITLE18='Cause I Love You So [Linda and Gardner]
TTITLE19=Fire On Fire [Silver Dollar Band]
EXTD=Entry by David Alexander 25 Feb 98\ndta@centuryinter.net
EXTT0=
EXTT1=
EXTT2=
EXTT3=
EXTT4=
EXTT5=
EXTT6=
EXTT7=
EXTT8=
EXTT9=
EXTT10=
EXTT11=
EXTT12=
EXTT13=
EXTT14=
EXTT15=
EXTT16=
EXTT17=
EXTT18=
EXTT19=
PLAYORDER=
